<?xml version="1.0" encoding="iso-8859-1"?>
<!-- Generator: Adobe Illustrator 18.0.0, SVG Export Plug-In . SVG Version: 6.00 Build 0)  -->
<!DOCTYPE svg PUBLIC "-//W3C//DTD SVG 1.1//EN" "http://www.w3.org/Graphics/SVG/1.1/DTD/svg11.dtd">
<svg version="1.1" id="Capa_1" xmlns="http://www.w3.org/2000/svg" xmlns:xlink="http://www.w3.org/1999/xlink" x="0px" y="0px"
	 viewBox="0 0 395 395" style="enable-background:new 0 0 395 395;" xml:space="preserve">
<g>
	<path d="M322.082,139.838h-12.395c-3.145,0-5.693,2.55-5.693,5.694v13.845c-1.627-12.684-3.402-26.597-4.619-36.319
		C296.782,104.152,287.384,75,197.501,75c-89.886,0-99.471,29.156-102.066,48.059c-1.478,11.8-2.953,23.6-4.43,35.4v-12.926
		c0-3.145-2.549-5.694-5.693-5.694H72.918c-3.143,0-5.693,2.55-5.693,5.694v31.319c0,3.145,2.551,5.694,5.693,5.694h12.395
		c1.006,0,1.949-0.263,2.77-0.721c-0.37,2.958-0.74,5.915-1.11,8.873v77.735c-1.989,1.507-3.28,3.887-3.28,6.571v11.882
		c0,4.55,3.696,8.247,8.247,8.247h17.183v14.34c0,5.805,4.723,10.527,10.527,10.527h17.676c5.805,0,10.527-4.723,10.527-10.527
		v-14.34h99.293v14.34c0,5.805,4.723,10.527,10.527,10.527h17.676c5.807,0,10.531-4.723,10.531-10.527v-14.34h17.184
		c4.55,0,8.246-3.697,8.246-8.247v-11.882c0-2.685-1.293-5.066-3.282-6.572v-77.733c0,0-0.445-3.444-1.148-8.898
		c0.829,0.472,1.787,0.746,2.81,0.746h12.395c3.143,0,5.693-2.55,5.693-5.694v-31.319
		C327.775,142.388,325.225,139.838,322.082,139.838z M161.602,95.499h71.789c2.967,0,5.36,2.403,5.36,5.364
		c0,2.957-2.394,5.359-5.36,5.359h-71.789c-2.96,0-5.354-2.402-5.354-5.359C156.248,97.902,158.642,95.499,161.602,95.499z
		 M142.798,254.449c-9.156,0-16.571-7.423-16.571-16.572c0-9.158,7.415-16.575,16.571-16.575c9.154,0,16.57,7.417,16.57,16.575
		C159.368,247.026,151.952,254.449,142.798,254.449z M252.203,254.449c-9.158,0-16.573-7.423-16.573-16.572
		c0-9.158,7.415-16.575,16.573-16.575c9.148,0,16.571,7.417,16.571,16.575C268.774,247.026,261.352,254.449,252.203,254.449z
		 M268.423,182.545c-36.563,0-105.282-0.002-141.844,0.001c-4.691,0-8.27-3.686-7.984-8.243c0.884-14.199,1.773-28.396,2.664-42.596
		c0.281-4.556,4.098-8.25,8.511-8.25c34.431,0,101.026,0,135.459,0c4.413,0,8.229,3.694,8.514,8.25
		c0.886,14.199,1.772,28.396,2.655,42.596C276.688,178.859,273.11,182.545,268.423,182.545z"/>
	<path d="M313.002,0H82C36.785,0,0,36.784,0,81.998v230.993C0,358.211,36.785,395,82,395h231.002
		C358.216,395,395,358.211,395,312.991V81.998C395,36.784,358.216,0,313.002,0z M380,312.991C380,349.94,349.944,380,313.002,380H82
		c-36.944,0-67-30.06-67-67.009V81.998C15,45.055,45.056,15,82,15h231.002C349.944,15,380,45.055,380,81.998V312.991z"/>
</g>
<g>
</g>
<g>
</g>
<g>
</g>
<g>
</g>
<g>
</g>
<g>
</g>
<g>
</g>
<g>
</g>
<g>
</g>
<g>
</g>
<g>
</g>
<g>
</g>
<g>
</g>
<g>
</g>
<g>
</g>
</svg>
