<?xml version="1.0" encoding="iso-8859-1"?>
<!-- Generator: Adobe Illustrator 18.1.1, SVG Export Plug-In . SVG Version: 6.00 Build 0)  -->
<svg version="1.1" id="Capa_1" xmlns="http://www.w3.org/2000/svg" xmlns:xlink="http://www.w3.org/1999/xlink" x="0px" y="0px"
	 viewBox="0 0 32.275 32.275" style="enable-background:new 0 0 32.275 32.275;" xml:space="preserve">
<g>
	<path style="fill:#030104;" d="M11.013,20.138V3.524c0-0.781-0.634-1.417-1.417-1.417H1.417C0.633,2.107,0,2.743,0,3.524v16.613
		c0,0.78,0.633,1.414,1.417,1.414h8.179C10.379,21.551,11.013,20.918,11.013,20.138z M8.663,2.995c0.201,0,0.364,0.161,0.364,0.361
		c0,0.199-0.163,0.363-0.364,0.363c-0.199,0-0.361-0.164-0.361-0.363C8.302,3.156,8.464,2.995,8.663,2.995z M3.609,3.132h3.794
		v0.414H3.609V3.132z M1.06,17.059V4.498h8.894V17.06H1.06V17.059z M5.507,20.154c-0.499,0-0.903-0.403-0.903-0.903
		s0.404-0.903,0.903-0.903c0.498,0,0.903,0.404,0.903,0.903C6.41,19.751,6.004,20.154,5.507,20.154z"/>
	<polygon style="fill:#030104;" points="21.619,12.57 23.398,12.57 23.398,7.169 23.398,5.39 21.619,5.39 12.833,5.39 12.833,7.169 
		21.619,7.169 	"/>
	<polygon style="fill:#030104;" points="6.048,22.75 4.269,22.75 4.269,28.151 4.269,29.929 6.048,29.929 11.447,29.929 
		11.447,28.151 6.048,28.151 	"/>
	<path style="fill:#030104;" d="M13.846,26.96h18.025V15.024H13.846V26.96z M14.69,15.936h16.339v10.115H14.69V15.936z"/>
	<polygon style="fill:#030104;" points="32.259,29.219 31.871,27.567 13.77,27.567 13.389,29.219 13.374,29.219 13.374,30.168 
		32.275,30.168 32.275,29.219 	"/>
</g>
<g>
</g>
<g>
</g>
<g>
</g>
<g>
</g>
<g>
</g>
<g>
</g>
<g>
</g>
<g>
</g>
<g>
</g>
<g>
</g>
<g>
</g>
<g>
</g>
<g>
</g>
<g>
</g>
<g>
</g>
</svg>
