<?xml version="1.0" encoding="iso-8859-1"?>
<!-- Generator: Adobe Illustrator 18.1.1, SVG Export Plug-In . SVG Version: 6.00 Build 0)  -->
<svg version="1.1" id="Capa_1" xmlns="http://www.w3.org/2000/svg" xmlns:xlink="http://www.w3.org/1999/xlink" x="0px" y="0px"
	 viewBox="0 0 612.004 612.004" style="enable-background:new 0 0 612.004 612.004;" xml:space="preserve">
<g>
	<g>
		<path d="M533.373,113.003c0,0-98.304,93.423-205.466,301.049c0,0-34.403,62.431-87.109,62.058c0,0-51.961-0.012-71.741-48.087
			c0,0-173.168,46.123-168.983,100.537c0,0,0.97,35.239,59.575,35.239h206.79c0,0,63.626,1.415,86.23-29.559
			c0,0,44.372-57.056,91.263-134.915c0,0,19.102-31.877,41.706-31.877c0,0,26.643-1.739,26.643,37.612v158.746h36.605V402.546
			c0,0,63.059-90.415,63.059-156.561C611.947,245.991,616.949,127.371,533.373,113.003z"/>
		<path d="M163.426,324.027l99.719-9.066c5.692-0.519,10.195-5.021,10.713-10.713l9.066-99.719c0.317-3.496-0.933-6.955-3.41-9.438
			L136.082,51.659c-4.624-4.618-12.116-4.618-16.735,0L10.556,160.444c-4.624,4.618-4.624,12.11,0,16.735l143.432,143.432
			C156.471,323.094,159.924,324.345,163.426,324.027z M205.73,246.833c9.53-9.53,24.983-9.53,34.513,0
			c9.53,9.53,9.53,24.983,0,34.513c-9.53,9.53-24.983,9.53-34.513,0C196.2,271.816,196.2,256.362,205.73,246.833z"/>
	</g>
</g>
<g>
</g>
<g>
</g>
<g>
</g>
<g>
</g>
<g>
</g>
<g>
</g>
<g>
</g>
<g>
</g>
<g>
</g>
<g>
</g>
<g>
</g>
<g>
</g>
<g>
</g>
<g>
</g>
<g>
</g>
</svg>
