<?xml version="1.0" encoding="iso-8859-1"?>
<!-- Generator: Adobe Illustrator 16.0.0, SVG Export Plug-In . SVG Version: 6.00 Build 0)  -->
<!DOCTYPE svg PUBLIC "-//W3C//DTD SVG 1.1//EN" "http://www.w3.org/Graphics/SVG/1.1/DTD/svg11.dtd">
<svg version="1.1" id="Capa_1" xmlns="http://www.w3.org/2000/svg" xmlns:xlink="http://www.w3.org/1999/xlink" x="0px" y="0px"
	 width="483.809px" height="483.809px" viewBox="0 0 483.809 483.809" style="enable-background:new 0 0 483.809 483.809;"
	 xml:space="preserve">
<g>
	<g>
		<polygon points="390.611,119.602 483.809,65.746 476.982,50.548 359.666,89.442 336.832,142.263 173.758,142.263 173.758,182.925 
			197.291,182.925 229.261,431.905 390.742,431.905 422.713,182.925 446.244,182.925 446.244,142.263 380.814,142.263 		"/>
		<polygon points="187.177,308.452 19.289,308.452 0,327.741 0,328.252 19.289,347.54 192.196,347.54 		"/>
		<path d="M176.17,222.733H85.31c-32.697,0-59.205,26.506-59.205,59.206v7.026h158.57L176.17,222.733z"/>
		<path d="M26.105,367.028v7.026c0,32.698,26.508,59.206,59.205,59.206h100.936c5.782,0,11.367-0.844,16.65-2.391l-8.197-63.842
			H26.105z"/>
	</g>
</g>
<g>
</g>
<g>
</g>
<g>
</g>
<g>
</g>
<g>
</g>
<g>
</g>
<g>
</g>
<g>
</g>
<g>
</g>
<g>
</g>
<g>
</g>
<g>
</g>
<g>
</g>
<g>
</g>
<g>
</g>
</svg>
