<?xml version="1.0" encoding="iso-8859-1"?>
<!-- Generator: Adobe Illustrator 16.0.0, SVG Export Plug-In . SVG Version: 6.00 Build 0)  -->
<!DOCTYPE svg PUBLIC "-//W3C//DTD SVG 1.1//EN" "http://www.w3.org/Graphics/SVG/1.1/DTD/svg11.dtd">
<svg version="1.1" id="Capa_1" xmlns="http://www.w3.org/2000/svg" xmlns:xlink="http://www.w3.org/1999/xlink" x="0px" y="0px"
	 width="905.119px" height="905.119px" viewBox="0 0 905.119 905.119" style="enable-background:new 0 0 905.119 905.119;"
	 xml:space="preserve">
<g>
	<g>
		<path d="M286.364,295.622c45.759,3.359,83.48,35.367,95.401,78.183c0.768,2.76,3.248,4.69,6.113,4.69h82.465
			c4.536,0,8.322,3.463,8.727,7.98l36.914,412.411c0.404,4.518,4.191,7.98,8.728,7.98h320.297c5.146,0,9.186-4.416,8.727-9.543
			l-60.46-675.62c-0.403-4.518-4.189-7.981-8.727-7.981H662.472c-2.543,0-4.65-1.957-4.854-4.492
			C652.689,48.103,601.657,0,539.265,0c-62.393,0-113.417,48.103-118.352,109.232c-0.205,2.535-2.312,4.491-4.854,4.491H304.332
			c-4.536,0-8.322,3.462-8.728,7.98l-14.97,167.159C280.325,292.32,282.902,295.368,286.364,295.622z M539.274,20.359
			c50.83,0,92.679,38.721,97.859,88.207c0.288,2.751-1.841,5.158-4.607,5.158H446.021c-2.766,0-4.895-2.407-4.606-5.158
			C446.595,59.08,488.444,20.359,539.274,20.359z"/>
		<path d="M63.479,905.119H490.92c7.127,0,12.718-6.113,12.083-13.211l-43.231-483.012c-0.56-6.256-5.802-11.05-12.083-11.05
			h-81.631c-3.188,0-5.884-2.394-6.223-5.563c-4.677-43.643-41.517-77.664-86.414-77.664c-44.89,0-81.737,34.013-86.415,77.664
			c-0.34,3.17-3.035,5.563-6.223,5.563h-74.072c-6.281,0-11.523,4.794-12.083,11.05L51.397,891.908
			C50.761,899.006,56.353,905.119,63.479,905.119z M207.716,390.828c5.174-31.625,32.616-55.85,65.693-55.85
			c33.078,0,60.52,24.225,65.701,55.849c0.603,3.673-2.2,7.021-5.921,7.021H213.637C209.917,397.846,207.116,394.5,207.716,390.828z
			"/>
	</g>
</g>
<g>
</g>
<g>
</g>
<g>
</g>
<g>
</g>
<g>
</g>
<g>
</g>
<g>
</g>
<g>
</g>
<g>
</g>
<g>
</g>
<g>
</g>
<g>
</g>
<g>
</g>
<g>
</g>
<g>
</g>
</svg>
