<?xml version="1.0" encoding="iso-8859-1"?>
<!-- Generator: Adobe Illustrator 16.0.0, SVG Export Plug-In . SVG Version: 6.00 Build 0)  -->
<!DOCTYPE svg PUBLIC "-//W3C//DTD SVG 1.1//EN" "http://www.w3.org/Graphics/SVG/1.1/DTD/svg11.dtd">
<svg version="1.1" id="Capa_1" xmlns="http://www.w3.org/2000/svg" xmlns:xlink="http://www.w3.org/1999/xlink" x="0px" y="0px"
	 width="47.165px" height="47.165px" viewBox="0 0 47.165 47.165" style="enable-background:new 0 0 47.165 47.165;"
	 xml:space="preserve">
<g>
	<g>
		<path d="M38.094,8.389c-1.548-1.547-4.055-1.548-5.602,0l-4.268,4.269v16.643l15.392-15.394L38.094,8.389z M36.785,14.404
			c-0.528,0.529-1.248,0.744-1.938,0.663c0.08,0.691-0.134,1.408-0.662,1.938c-0.918,0.918-2.41,0.919-3.328,0
			c-0.918-0.918-0.918-2.408,0.002-3.327c0.527-0.529,1.246-0.744,1.937-0.663c-0.082-0.69,0.136-1.409,0.662-1.938
			c0.92-0.918,2.409-0.918,3.327,0C37.705,11.997,37.705,13.485,36.785,14.404z"/>
		<path d="M46.195,16.528L28.225,34.5v3.211c1.099,0.094,2.256-0.269,3.11-1.123l14.679-14.676
			C47.491,20.431,47.54,18.085,46.195,16.528z"/>
		<path d="M26.134,14.179c0-2.287-1.854-4.14-4.14-4.14H4.14c-2.286,0-4.14,1.853-4.14,4.14v21.618c0,2.287,1.854,4.14,4.14,4.14
			h17.854c2.285,0,4.14-1.854,4.14-4.14V14.179z M9.094,34.284c0,0.755-0.612,1.367-1.367,1.367H5.078
			c-0.755,0-1.367-0.612-1.367-1.367v-2.493c0-0.754,0.612-1.367,1.367-1.367h2.648c0.755,0,1.367,0.613,1.367,1.367L9.094,34.284
			L9.094,34.284z M9.094,27.803c0,0.756-0.612,1.367-1.367,1.367H5.078c-0.755,0-1.367-0.611-1.367-1.367v-2.598
			c0-0.755,0.612-1.367,1.367-1.367h2.648c0.755,0,1.367,0.612,1.367,1.367L9.094,27.803L9.094,27.803z M15.785,34.284
			c0,0.755-0.612,1.367-1.367,1.367h-2.702c-0.755,0-1.367-0.612-1.367-1.367v-2.493c0-0.754,0.612-1.367,1.367-1.367h2.702
			c0.755,0,1.367,0.613,1.367,1.367V34.284z M15.785,27.803c0,0.756-0.612,1.367-1.367,1.367h-2.702
			c-0.755,0-1.367-0.611-1.367-1.367v-2.598c0-0.755,0.612-1.367,1.367-1.367h2.702c0.755,0,1.367,0.612,1.367,1.367V27.803z
			 M22.423,34.284c0,0.755-0.612,1.367-1.367,1.367h-2.649c-0.755,0-1.367-0.612-1.367-1.367v-2.493
			c0-0.754,0.612-1.367,1.367-1.367h2.649c0.755,0,1.367,0.613,1.367,1.367V34.284z M22.423,27.803c0,0.756-0.612,1.367-1.367,1.367
			h-2.649c-0.755,0-1.367-0.611-1.367-1.367v-2.598c0-0.755,0.612-1.367,1.367-1.367h2.649c0.755,0,1.367,0.612,1.367,1.367V27.803z
			 M22.423,18.133c0,0.755-0.612,1.367-1.367,1.367H5.078c-0.755,0-1.367-0.612-1.367-1.367V15.64c0-0.755,0.612-1.367,1.367-1.367
			h15.978c0.755,0,1.367,0.612,1.367,1.367V18.133z"/>
	</g>
</g>
<g>
</g>
<g>
</g>
<g>
</g>
<g>
</g>
<g>
</g>
<g>
</g>
<g>
</g>
<g>
</g>
<g>
</g>
<g>
</g>
<g>
</g>
<g>
</g>
<g>
</g>
<g>
</g>
<g>
</g>
</svg>
