<?xml version="1.0" encoding="iso-8859-1"?>
<!-- Generator: Adobe Illustrator 18.1.1, SVG Export Plug-In . SVG Version: 6.00 Build 0)  -->
<svg version="1.1" id="Capa_1" xmlns="http://www.w3.org/2000/svg" xmlns:xlink="http://www.w3.org/1999/xlink" x="0px" y="0px"
	 viewBox="0 0 19.674 19.674" style="enable-background:new 0 0 19.674 19.674;" xml:space="preserve">
<g>
	<path style="fill:#030104;" d="M12.294,18.468c1.149-0.475,1.888-1.908,1.749-3.004c-0.234-1.801-1.146-1.728-1.146-3.051
		c0-1.326,1.424-3.407,1.76-3.726c0.336-0.318,0.291-0.279-0.11-0.5c-0.404-0.215-0.983,0.067-0.983,0.067l-0.437,0.18
		c0,0-0.058-0.309-0.142-0.844c-0.081-0.536-0.762-1.463-0.762-1.463s1.125,0.112,1.274-0.257c0.151-0.37-0.101-0.554-0.101-0.554
		V4.931l-0.167,0.084l-0.286,0.017l-0.066-0.185c0,0-0.184,0.152-0.386,0.152c-0.201,0-0.903-0.078-1.031-0.334
		c-0.295-0.588-0.138-0.727,0.381-0.95c0.789-0.34,1.435,0.338,1.435,0.338l0.066,0.218c0,0,0.117-0.133,0.303-0.148
		c0.184-0.018,0.291,0.035,0.291,0.035s0.132-0.016,0.266-0.352c0.135-0.334,0.067-0.486,0.067-0.654s0-0.217,0.067-0.434
		c0.067-0.219-0.085-0.471-0.37-0.621c-0.285-0.152-1.14-0.219-1.14-0.219s0.05-0.117-0.033-0.266
		c-0.084-0.156-0.233-0.27-0.671-0.455c-0.436-0.185-0.453-0.69-1.408-1.056C9.755-0.269,7.861,0.5,7.861,0.5
		s-0.2-0.115-0.437-0.084C7.188,0.454,6.753,0.334,6.704,0.37C6.653,0.4,6.873,0.972,6.873,0.972S6.569,1.157,6.318,1.508
		C6.066,1.859,5.75,2.667,5.715,3.521C5.681,4.377,5.412,5.064,5.347,5.215C5.28,5.365,6.12,5.096,6.12,5.096S6.05,5.35,5.884,6.055
		C5.715,6.758,5.295,8.051,5.195,8.336C5.093,8.622,6.012,8.217,6.012,8.217S5.93,8.651,5.688,9.487
		c-0.228,0.785-0.809,1.504-0.891,1.756c-0.084,0.252,0.987,0.365,0.987,0.365s-1.337,1.768-0.663,3.82
		c0.795,2.416,2.267,3.039,2.267,3.039H5.596v1.207h9.055v-1.207h-2.357V18.468z M14.12,2.396c0.116,0.121,0.082,0.337,0.03,0.472
		c-0.048,0.134-0.35-0.517-0.35-0.517C13.936,2.179,14.002,2.282,14.12,2.396z M11.249,1.961c0,0,0.219-0.148,0.571-0.066
		c0.353,0.084,0.268,0.219,0.268,0.219s-0.167,0.049-0.436,0.065c-0.268,0.016-0.57-0.149-0.57-0.149L11.249,1.961z M8.939,1.206
		c0,0-0.855,2.453,0.072,4.922c0.765,2.031,2.403,4.125,2.403,4.125S8.923,9.601,7.887,6.489C7.069,4.034,8.939,1.206,8.939,1.206z
		 M11.316,16.167c0,0-0.051-0.199-0.084-0.148c-0.035,0.051-0.133,0.082-0.233,0.148c-0.586,0.397-1.189-1.67-0.315-2.144
		c0,0,1.213-0.032,1.459,0.757C12.413,15.646,11.316,16.167,11.316,16.167z M12.055,9.984c0,0-0.168-1.279-1.031-2.418
		c-2.54-3.353-1.367-5.773-1.367-5.773s-0.033,0.47,0.065,1.142c0.103,0.671,0.2,1.541,1.062,2.403
		C12.869,7.422,12.055,9.984,12.055,9.984z"/>
</g>
<g>
</g>
<g>
</g>
<g>
</g>
<g>
</g>
<g>
</g>
<g>
</g>
<g>
</g>
<g>
</g>
<g>
</g>
<g>
</g>
<g>
</g>
<g>
</g>
<g>
</g>
<g>
</g>
<g>
</g>
</svg>
